# xmcd
#
# Track frame offsets: 
#        150
#        14385
#        29037
#        42159
#        56872
#        69775
#        84363
#        98443
#        111039
#        125309
#        139436
#        152138
#        165318
#        176632
#        192836
#        204073
#        217166
#        232257
#        246440
#        261030
#        275680
#        289189
#        304512
#        318599
#
# Disc length: 4426 seconds
#
# Revision: 1
# Processed by: cddbd v1.5.2PL0 Copyright (c) Steve Scherf et al.
# Submitted via: ExactAudioCopy v0.99pb4
#
DISCID=5b114818
DTITLE=Sinatra, Frank - Love Me As I Am
DYEAR=1900
DGENRE=Jazz
TTITLE0=Love me as I am
TTITLE1=Moments in the moonlight
TTITLE2=Yours is my heart alone
TTITLE3=Too romantic
TTITLE4=Head on my pillow
TTITLE5=It's allways you
TTITLE6=I'll never smile again
TTITLE7=Be careful, it's my heart
TTITLE8=I could make you care
TTITLE9=You're lonely and I'm lonely
TTITLE10=Where do you keep your heart?
TTITLE11=Two in love
TTITLE12=Last call for love
TTITLE13=The one I love belongs to somebody else
TTITLE14=It's a lovely day tomorrow
TTITLE15=Oh, what a beautiful mornin'
TTITLE16=Polka dots and Moonbeams
TTITLE17=Looking for yesterday
TTITLE18=This is the beginning of the End
TTITLE19=Everything happens to me
TTITLE20=A sinnner kissed an angel
TTITLE21=Say it
TTITLE22=The call of the canyon
TTITLE23=Whispering
EXTD=
EXTT0=
EXTT1=
EXTT2=
EXTT3=
EXTT4=
EXTT5=
EXTT6=
EXTT7=
EXTT8=
EXTT9=
EXTT10=
EXTT11=
EXTT12=
EXTT13=
EXTT14=
EXTT15=
EXTT16=
EXTT17=
EXTT18=
EXTT19=
EXTT20=
EXTT21=
EXTT22=
EXTT23=
PLAYORDER=
